<svg width="3660" height="3368" viewBox="0 0 3660 3368" fill="none" xmlns="http://www.w3.org/2000/svg">
<path fill-rule="evenodd" clip-rule="evenodd" d="M1128.72 4.89461C857.402 10.0856 664.811 18.9947 627.81 28.0758C594.75 36.1874 513.602 67.0385 447.482 96.6257C151.276 229.209 0 480.301 0 839.421C0 1273.68 217.075 1545.35 653.911 1657.76C708.758 1671.87 826.866 1678.86 1108.69 1684.66C1481.74 1692.33 1490.85 1693.13 1562.85 1724.24C1701.63 1784.21 1805.53 1914.28 1824.62 2051.93L1833.63 2117.03L1908.62 2109.08C2154.26 2083.01 2336.23 1997.74 2506.34 1828.94C2611.85 1724.24 2701.59 1563.44 2731.27 1425.91C2756.01 1311.24 2759.68 824.118 2736.81 688.381C2680.08 351.546 2445.9 112.64 2091.21 29.7938C1968.32 1.078 1696.5 -5.94133 1128.72 4.89461ZM748.029 438.467C654.472 462.176 572.363 509.606 531.889 563.307C458.382 660.843 433.536 847.398 474.691 992.597C500.993 1085.33 537.873 1139.55 605.156 1184.32C704.67 1250.55 759.517 1258.51 1182.15 1268.06C1557.45 1276.55 1572.64 1277.85 1669.55 1309.97C1811.19 1356.9 1901.76 1409.3 2014.36 1509.47L2112.33 1596.6L2157.49 1556.31C2182.34 1534.15 2219.5 1486.64 2240.07 1450.76L2277.48 1385.51L2281.6 1059.61C2285.52 749.641 2284.29 730.154 2256.47 660.782C2220.43 570.904 2129.31 484.67 2035.79 451.954C1975.95 431.006 1919.76 428.76 1389.2 426.122C959.2 423.986 792.51 427.189 748.029 438.467ZM2973.23 1333.36C2943.8 1507.67 2933.66 1550.6 2906.01 1618.09L2874.61 1694.75L2944.84 1715.08C3050.33 1745.64 3116.78 1795.9 3160.97 1878.55C3196.84 1945.66 3199.15 1959.36 3199.03 2103.41C3198.89 2238.42 3195.07 2264.59 3167.1 2321.7C3148.72 2359.23 3110.47 2406.69 3076.34 2434.29C2972.85 2517.97 2940.14 2523.64 2504.56 2533.41C2285.26 2538.33 2091.7 2548.31 2058.43 2556.4C1902.48 2594.32 1692.56 2713.71 1598.04 2818.24L1552.21 2868.93L1505.84 2825.07C1480.34 2800.95 1442.15 2748.8 1420.99 2709.22L1382.52 2637.23L1378.32 2333.03C1375.05 2095.2 1378.34 2015.65 1393.39 1968.48C1403.98 1935.3 1409.37 1905.15 1405.37 1901.47C1401.38 1897.8 1294.61 1894.79 1168.13 1894.79H938.149L929.64 1928.54C912.823 1995.27 905.316 2489.82 919.408 2602.65C952.869 2870.52 1097.55 3092.27 1330.1 3232.09C1463.88 3312.53 1644.45 3367.4 1775.38 3367.4H1826.31L1840.93 3300.57C1861.99 3204.2 1912.52 3121.01 1987.5 3059.28C2102.74 2964.42 2131.08 2959.03 2564.67 2949.69C2993.33 2940.45 3033.03 2934.34 3219.2 2848.92C3511.76 2714.68 3660.01 2465.83 3659.68 2109.55C3659.28 1693.95 3477.01 1435.4 3100.53 1316.4C2997.42 1283.81 2981.24 1285.96 2973.23 1333.36Z" fill="url(#paint0_linear_10_6)"/>
<defs>
<linearGradient id="paint0_linear_10_6" x1="1791" y1="1296" x2="1829.84" y2="3367.4" gradientUnits="userSpaceOnUse">
<stop stop-color="#1040BC"/>
<stop offset="0.245" stop-color="#0047AF"/>
<stop offset="1" stop-color="#96E1F8"/>
</linearGradient>
</defs>
</svg>
